<mxfile host="app.diagrams.net" modified="2023-12-19T13:02:04.123Z" agent="Mozilla/5.0 (Windows NT 10.0; Win64; x64) AppleWebKit/537.36 (KHTML, like Gecko) Chrome/120.0.0.0 Safari/537.36" etag="jG4auUb4XAfKP2QCu6Up" version="22.1.11" type="github">
  <diagram name="OpciÃ³n S3" id="2_QoWsmIpwzopcO--w2Y">
    <mxGraphModel dx="1079" dy="1104" grid="1" gridSize="10" guides="1" tooltips="1" connect="1" arrows="1" fold="1" page="1" pageScale="1" pageWidth="1169" pageHeight="827" math="0" shadow="0">
      <root>
        <mxCell id="0" />
        <mxCell id="1" parent="0" />
        <mxCell id="YYY3uUpcTJU4uNfkz4Mn-2" value="" style="rounded=0;whiteSpace=wrap;html=1;" vertex="1" parent="1">
          <mxGeometry x="150" y="260" width="770" height="126" as="geometry" />
        </mxCell>
        <mxCell id="YYY3uUpcTJU4uNfkz4Mn-8" style="edgeStyle=orthogonalEdgeStyle;rounded=0;orthogonalLoop=1;jettySize=auto;html=1;entryX=0;entryY=0.5;entryDx=0;entryDy=0;" edge="1" parent="1" source="YYY3uUpcTJU4uNfkz4Mn-3" target="YYY3uUpcTJU4uNfkz4Mn-7">
          <mxGeometry relative="1" as="geometry" />
        </mxCell>
        <mxCell id="YYY3uUpcTJU4uNfkz4Mn-9" value="SI" style="edgeLabel;html=1;align=center;verticalAlign=middle;resizable=0;points=[];" vertex="1" connectable="0" parent="YYY3uUpcTJU4uNfkz4Mn-8">
          <mxGeometry x="-0.05" y="-1" relative="1" as="geometry">
            <mxPoint as="offset" />
          </mxGeometry>
        </mxCell>
        <mxCell id="YYY3uUpcTJU4uNfkz4Mn-12" style="edgeStyle=orthogonalEdgeStyle;rounded=0;orthogonalLoop=1;jettySize=auto;html=1;" edge="1" parent="1" source="YYY3uUpcTJU4uNfkz4Mn-3" target="YYY3uUpcTJU4uNfkz4Mn-11">
          <mxGeometry relative="1" as="geometry">
            <Array as="points">
              <mxPoint x="415" y="356" />
              <mxPoint x="785" y="356" />
            </Array>
          </mxGeometry>
        </mxCell>
        <mxCell id="YYY3uUpcTJU4uNfkz4Mn-3" value="bloqueo?" style="rhombus;whiteSpace=wrap;html=1;" vertex="1" parent="1">
          <mxGeometry x="370" y="301.5" width="90" height="43" as="geometry" />
        </mxCell>
        <mxCell id="YYY3uUpcTJU4uNfkz4Mn-6" style="edgeStyle=orthogonalEdgeStyle;rounded=0;orthogonalLoop=1;jettySize=auto;html=1;" edge="1" parent="1" source="YYY3uUpcTJU4uNfkz4Mn-4" target="YYY3uUpcTJU4uNfkz4Mn-3">
          <mxGeometry relative="1" as="geometry" />
        </mxCell>
        <mxCell id="YYY3uUpcTJU4uNfkz4Mn-4" value="Ingreso Rut" style="rounded=0;whiteSpace=wrap;html=1;" vertex="1" parent="1">
          <mxGeometry x="210" y="303" width="110" height="40" as="geometry" />
        </mxCell>
        <mxCell id="YYY3uUpcTJU4uNfkz4Mn-5" value="IVR Genesys Cloud" style="text;html=1;strokeColor=none;fillColor=none;align=center;verticalAlign=middle;whiteSpace=wrap;rounded=0;" vertex="1" parent="1">
          <mxGeometry x="130" y="260" width="170" height="30" as="geometry" />
        </mxCell>
        <mxCell id="YYY3uUpcTJU4uNfkz4Mn-7" value="Log" style="shape=process;whiteSpace=wrap;html=1;backgroundOutline=1;" vertex="1" parent="1">
          <mxGeometry x="550" y="266" width="90" height="37" as="geometry" />
        </mxCell>
        <mxCell id="YYY3uUpcTJU4uNfkz4Mn-11" value="Continua Flujo" style="rounded=0;whiteSpace=wrap;html=1;" vertex="1" parent="1">
          <mxGeometry x="730" y="310.5" width="110" height="34" as="geometry" />
        </mxCell>
      </root>
    </mxGraphModel>
  </diagram>
</mxfile>
